<?xml version="1.0" encoding="UTF-8" standalone="no"?>
<svg width="71px" height="61px" viewBox="0 0 71 61" version="1.1" xmlns="http://www.w3.org/2000/svg" xmlns:xlink="http://www.w3.org/1999/xlink" xmlns:sketch="http://www.bohemiancoding.com/sketch/ns">
    <!-- Generator: Sketch 3.4.1 (15681) - http://www.bohemiancoding.com/sketch -->
    <title>Slice 1</title>
    <desc>Created with Sketch.</desc>
    <defs></defs>
    <g id="Page-1" stroke="none" stroke-width="1" fill="none" fill-rule="evenodd" sketch:type="MSPage">
        <path d="M11.0000001,40.9999997 C9.71825159,36.6191274 -0.542205825,37.4356813 -5.98126444e-07,31.9999997 C1.2585207,19.3831515 15.0631672,23.5192751 16.9999993,18.9999998 C19.9999991,11.9999996 27.0000005,-0.999999995 33.6355482,0.999999979 C40.2710958,2.99999995 29.5366816,9.2708515 35.2723899,25.9999997 C41.0080982,42.7291479 60.0000005,16.2885053 69.0000005,27.6442525 C78.0000005,38.9999997 45.1321477,34.0065598 48.0000014,44.9999997 C49.4458498,50.5424186 52.0000014,58.9999997 44.1510139,59.9999997 C36.3020263,60.9999997 40.4280407,46.0810118 29.9999992,42.9999997 C21.6761815,40.54069 20.7599435,49.2137923 18.9999995,50.9999997 C16.3132747,53.7268182 11.6448394,62.6579356 5.00000001,59.9999997 C-4.99999951,55.9999997 12.6933388,46.7876407 11.0000001,40.9999997 Z" id="Path-1" fill="#7FBC7C" sketch:type="MSShapeGroup"></path>
    </g>
</svg>